<svg width="16" height="16" viewBox="0 0 16 16" fill="none" xmlns="http://www.w3.org/2000/svg">
<path fill-rule="evenodd" clip-rule="evenodd" d="M5.85341 10.75C5.95744 10.6115 6.0035 10.438 5.98182 10.2661C5.96014 10.0943 5.87243 9.93761 5.73726 9.82931C5.6021 9.721 5.43008 9.66955 5.25765 9.68585C5.08521 9.70215 4.92588 9.78493 4.81341 9.91665L4.66674 10.1V3.99998C4.66674 3.82317 4.59651 3.6536 4.47148 3.52858C4.34646 3.40355 4.17689 3.33331 4.00008 3.33331C3.82327 3.33331 3.6537 3.40355 3.52867 3.52858C3.40365 3.6536 3.33341 3.82317 3.33341 3.99998V10.1L3.18674 9.91665C3.13311 9.84525 3.06567 9.78536 2.98844 9.74052C2.91122 9.69568 2.82577 9.66682 2.73717 9.65565C2.64857 9.64447 2.55863 9.6512 2.47269 9.67546C2.38674 9.69971 2.30655 9.74098 2.23686 9.79682C2.16717 9.85266 2.10941 9.92193 2.06701 10.0005C2.02461 10.0791 1.99843 10.1654 1.99002 10.2543C1.98162 10.3432 1.99116 10.4329 2.01808 10.5181C2.045 10.6032 2.08876 10.6821 2.14674 10.75L3.48008 12.4166C3.54254 12.4945 3.6217 12.5574 3.7117 12.6005C3.8017 12.6437 3.90025 12.6661 4.00008 12.6661C4.0999 12.6661 4.19845 12.6437 4.28845 12.6005C4.37845 12.5574 4.45761 12.4945 4.52008 12.4166L5.85341 10.75ZM8.00008 12C7.82327 12 7.6537 11.9297 7.52867 11.8047C7.40365 11.6797 7.33341 11.5101 7.33341 11.3333C7.33341 11.1565 7.40365 10.9869 7.52867 10.8619C7.6537 10.7369 7.82327 10.6666 8.00008 10.6666H13.3334C13.5102 10.6666 13.6798 10.7369 13.8048 10.8619C13.9298 10.9869 14.0001 11.1565 14.0001 11.3333C14.0001 11.5101 13.9298 11.6797 13.8048 11.8047C13.6798 11.9297 13.5102 12 13.3334 12H8.00008ZM8.00008 8.66665C7.82327 8.66665 7.6537 8.59641 7.52867 8.47139C7.40365 8.34636 7.33341 8.17679 7.33341 7.99998C7.33341 7.82317 7.40365 7.6536 7.52867 7.52858C7.6537 7.40355 7.82327 7.33331 8.00008 7.33331H11.3334C11.5102 7.33331 11.6798 7.40355 11.8048 7.52858C11.9298 7.6536 12.0001 7.82317 12.0001 7.99998C12.0001 8.17679 11.9298 8.34636 11.8048 8.47139C11.6798 8.59641 11.5102 8.66665 11.3334 8.66665H8.00008ZM7.33341 4.66665C7.33341 4.84346 7.40365 5.01303 7.52867 5.13805C7.6537 5.26308 7.82327 5.33331 8.00008 5.33331H10.0001C10.1769 5.33331 10.3465 5.26308 10.4715 5.13805C10.5965 5.01303 10.6667 4.84346 10.6667 4.66665C10.6667 4.48984 10.5965 4.32027 10.4715 4.19524C10.3465 4.07022 10.1769 3.99998 10.0001 3.99998H8.00008C7.82327 3.99998 7.6537 4.07022 7.52867 4.19524C7.40365 4.32027 7.33341 4.48984 7.33341 4.66665Z" fill="#2A2A2A"/>
</svg>
