<svg width="25" height="24" viewBox="0 0 25 24" fill="none" xmlns="http://www.w3.org/2000/svg">
<path fill-rule="evenodd" clip-rule="evenodd" d="M1.85437 9.495C1.85437 5.99197 4.24234 3.009 7.90387 3.009C9.35869 3.009 10.6373 3.69617 11.9369 4.87468C13.2746 3.68358 14.6531 3.009 16.0954 3.009C19.77 3.009 22.0737 6.0087 22.0158 9.50742C21.9815 11.575 20.5418 13.7305 18.7382 15.6391C16.8995 17.5849 14.5322 19.4293 12.3502 20.8831L11.9343 21.1603L11.5184 20.8831C9.34114 19.4318 6.95908 17.6052 5.11208 15.6673C3.29999 13.766 1.85437 11.6054 1.85437 9.495ZM7.90387 4.509C5.2234 4.509 3.35437 6.65904 3.35437 9.495C3.35437 10.9816 4.42125 12.7683 6.19791 14.6324C7.82659 16.3412 9.92848 17.9883 11.9342 19.3545C13.9356 17.9885 16.025 16.3263 17.648 14.6088C19.4189 12.7348 20.4918 10.943 20.516 9.48258C20.563 6.6423 18.7627 4.509 16.0954 4.509C15.0239 4.509 13.8313 5.0737 12.4644 6.43911L11.9344 6.96861L11.4043 6.43911C10.0187 5.05495 8.95881 4.509 7.90387 4.509Z" fill="#757575"/>
</svg>
