<svg width="18" height="18" viewBox="0 0 18 18" fill="none" xmlns="http://www.w3.org/2000/svg">
<path d="M10.0579 9L13.2829 5.7825C13.4242 5.64127 13.5035 5.44973 13.5035 5.25C13.5035 5.05028 13.4242 4.85873 13.2829 4.7175C13.1417 4.57627 12.9502 4.49693 12.7504 4.49693C12.5507 4.49693 12.3592 4.57627 12.2179 4.7175L9.00044 7.9425L5.78294 4.7175C5.64171 4.57627 5.45017 4.49693 5.25044 4.49693C5.05072 4.49693 4.85917 4.57627 4.71794 4.7175C4.57671 4.85873 4.49737 5.05028 4.49737 5.25C4.49737 5.44973 4.57671 5.64127 4.71794 5.7825L7.94294 9L4.71794 12.2175C4.64765 12.2872 4.59185 12.3702 4.55377 12.4616C4.5157 12.553 4.49609 12.651 4.49609 12.75C4.49609 12.849 4.5157 12.947 4.55377 13.0384C4.59185 13.1298 4.64765 13.2128 4.71794 13.2825C4.78766 13.3528 4.87062 13.4086 4.96201 13.4467C5.0534 13.4847 5.15143 13.5044 5.25044 13.5044C5.34945 13.5044 5.44748 13.4847 5.53888 13.4467C5.63027 13.4086 5.71322 13.3528 5.78294 13.2825L9.00044 10.0575L12.2179 13.2825C12.2877 13.3528 12.3706 13.4086 12.462 13.4467C12.5534 13.4847 12.6514 13.5044 12.7504 13.5044C12.8495 13.5044 12.9475 13.4847 13.0389 13.4467C13.1303 13.4086 13.2132 13.3528 13.2829 13.2825C13.3532 13.2128 13.409 13.1298 13.4471 13.0384C13.4852 12.947 13.5048 12.849 13.5048 12.75C13.5048 12.651 13.4852 12.553 13.4471 12.4616C13.409 12.3702 13.3532 12.2872 13.2829 12.2175L10.0579 9Z" fill="#666666"/>
</svg>
