<svg width="15" height="14" viewBox="0 0 15 14" fill="none" xmlns="http://www.w3.org/2000/svg">
<g clip-path="url(#clip0_68_4440)">
<path d="M10.3959 13.9988H1.93758C1.05264 13.9988 0.333374 13.2796 0.333374 12.3946V3.93633C0.333374 3.05139 1.05264 2.33212 1.93758 2.33212H6.89587C7.13737 2.33212 7.33337 2.52812 7.33337 2.76962C7.33337 3.01112 7.13737 3.20712 6.89587 3.20712H1.93758C1.53564 3.20712 1.20837 3.53439 1.20837 3.93633V12.3946C1.20837 12.7966 1.53564 13.1238 1.93758 13.1238H10.3959C10.7978 13.1238 11.1251 12.7966 11.1251 12.3946V7.43633C11.1251 7.19482 11.3211 6.99883 11.5626 6.99883C11.8041 6.99883 12.0001 7.19429 12.0001 7.43633V12.3946C12.0001 13.2796 11.2808 13.9988 10.3959 13.9988Z" fill="#757575"/>
<path d="M5.45045 9.3193C5.33552 9.3193 5.22348 9.2738 5.14123 9.19102C5.03741 9.08773 4.99309 8.93895 5.02171 8.79603L5.43411 6.73339C5.45099 6.64827 5.49297 6.57061 5.55363 6.50994L11.5953 0.469006C12.2206 -0.156376 13.238 -0.156376 13.8639 0.469006C14.1666 0.771709 14.3334 1.17428 14.3334 1.60302C14.3334 2.03176 14.1666 2.43423 13.8633 2.73704L7.82231 8.77862C7.76165 8.83982 7.68346 8.88127 7.59886 8.89814L5.53676 9.31054C5.50813 9.31642 5.47897 9.3193 5.45045 9.3193ZM7.51309 8.4694H7.51897H7.51309ZM6.26596 7.03503L6.00865 8.32414L7.29723 8.0663L13.2449 2.11871C13.3826 1.98039 13.4584 1.79785 13.4584 1.60302C13.4584 1.4082 13.3826 1.22555 13.2449 1.08734C12.9615 0.803219 12.4988 0.803219 12.2137 1.08734L6.26596 7.03503Z" fill="#757575"/>
<path d="M12.7292 3.69077C12.6173 3.69077 12.5052 3.64815 12.4201 3.56238L10.7704 1.91214C10.5995 1.74124 10.5995 1.46417 10.7704 1.29327C10.9413 1.12238 11.2184 1.12238 11.3894 1.29327L13.039 2.94351C13.2099 3.11441 13.2099 3.39148 13.039 3.56238C12.9532 3.64761 12.8412 3.69077 12.7292 3.69077Z" fill="#757575"/>
</g>
<defs>
<clipPath id="clip0_68_4440">
<rect width="14" height="14" fill="white" transform="translate(0.333374)"/>
</clipPath>
</defs>
</svg>
