<svg width="21" height="20" viewBox="0 0 21 20" fill="none" xmlns="http://www.w3.org/2000/svg">
<g clip-path="url(#clip0_68_4514)">
<path d="M13.5754 2.24765L10.3333 12.4689L7.09135 2.24765C3.23481 3.57322 0.333374 7.16913 0.333374 11.2916C0.333374 13.7746 1.34635 16.0644 2.98516 17.752H7.6855L8.17826 15.6151C2.56294 13.4149 3.62471 6.59717 5.66038 5.48428C5.90201 5.55694 9.44279 17.7017 9.44279 17.7017C9.49116 17.7017 9.6483 17.7017 9.8403 17.7017C9.88085 17.7017 10.0336 17.7017 10.2239 17.7017C10.2927 17.7017 10.3671 17.7017 10.4425 17.7017C10.5717 17.7017 10.7058 17.7017 10.8258 17.7017C11.018 17.7017 11.175 17.7017 11.2235 17.7017C11.2235 17.7017 14.7645 5.55694 15.0059 5.48428C17.0418 6.59717 18.1032 13.4149 12.4879 15.6151L12.9808 17.752H17.6812C19.3202 16.0644 20.3332 13.7746 20.3332 11.2916C20.3332 7.16913 17.4317 3.57322 13.5754 2.24765Z" fill="#8EB3F5"/>
</g>
<defs>
<clipPath id="clip0_68_4514">
<rect width="19.9998" height="20" fill="white" transform="translate(0.333374)"/>
</clipPath>
</defs>
</svg>
