<svg width="20" height="20" viewBox="0 0 20 20" fill="none" xmlns="http://www.w3.org/2000/svg">
<path fill-rule="evenodd" clip-rule="evenodd" d="M6.13257 4.98822C6.13257 4.57401 6.46835 4.23822 6.88257 4.23822H16.4097C16.8239 4.23822 17.1597 4.57401 17.1597 4.98822C17.1597 5.40243 16.8239 5.73822 16.4097 5.73822H6.88257C6.46835 5.73822 6.13257 5.40243 6.13257 4.98822Z" fill="#666666"/>
<path fill-rule="evenodd" clip-rule="evenodd" d="M6.15259 9.98999C6.15259 9.57578 6.48837 9.23999 6.90259 9.23999H16.4297C16.8439 9.23999 17.1797 9.57578 17.1797 9.98999C17.1797 10.4042 16.8439 10.74 16.4297 10.74H6.90259C6.48837 10.74 6.15259 10.4042 6.15259 9.98999Z" fill="#666666"/>
<path fill-rule="evenodd" clip-rule="evenodd" d="M6.15259 15.0118C6.15259 14.5976 6.48837 14.2618 6.90259 14.2618H16.4297C16.8439 14.2618 17.1797 14.5976 17.1797 15.0118C17.1797 15.426 16.8439 15.7618 16.4297 15.7618H6.90259C6.48837 15.7618 6.15259 15.426 6.15259 15.0118Z" fill="#666666"/>
<path d="M4.18885 4.45824C4.29601 4.45824 4.40075 4.49002 4.48985 4.54955C4.57894 4.60908 4.64838 4.6937 4.68938 4.7927C4.73039 4.89169 4.74112 5.00063 4.72021 5.10572C4.6993 5.21082 4.6477 5.30735 4.57193 5.38312C4.49616 5.45889 4.39963 5.51049 4.29453 5.53139C4.18944 5.55229 4.08051 5.54156 3.98151 5.50056C3.88251 5.45955 3.7979 5.39011 3.73837 5.30102C3.67884 5.21192 3.64706 5.10717 3.64706 5.00002C3.64722 4.85638 3.70435 4.71866 3.80592 4.6171C3.9075 4.51553 4.04521 4.4584 4.18885 4.45824ZM4.18885 3.75824C3.94325 3.75823 3.70316 3.83106 3.49895 3.9675C3.29473 4.10395 3.13557 4.29789 3.04158 4.52479C2.94758 4.7517 2.92299 5.00138 2.9709 5.24226C3.01881 5.48314 3.13708 5.70441 3.31074 5.87808C3.48441 6.05175 3.70567 6.17002 3.94655 6.21794C4.18743 6.26585 4.43712 6.24126 4.66402 6.14728C4.89093 6.05329 5.08487 5.89413 5.22132 5.68992C5.35777 5.48571 5.4306 5.24562 5.4306 5.00002C5.4306 4.67068 5.29978 4.35484 5.06691 4.12196C4.83403 3.88908 4.51819 3.75825 4.18885 3.75824ZM4.18885 9.44823C4.29601 9.44823 4.40076 9.48 4.48985 9.53954C4.57895 9.59907 4.64839 9.68369 4.6894 9.78269C4.73041 9.88168 4.74114 9.99062 4.72023 10.0957C4.69933 10.2008 4.64773 10.2974 4.57195 10.3731C4.49618 10.4489 4.39965 10.5005 4.29455 10.5214C4.18945 10.5423 4.08052 10.5316 3.98152 10.4906C3.88252 10.4496 3.7979 10.3801 3.73837 10.291C3.67884 10.2019 3.64706 10.0972 3.64706 9.99002C3.64722 9.84637 3.70435 9.70866 3.80592 9.60708C3.90749 9.50551 4.04521 9.44839 4.18885 9.44823ZM4.18885 8.74822C3.94325 8.74821 3.70316 8.82103 3.49894 8.95748C3.29472 9.09392 3.13555 9.28786 3.04156 9.51477C2.94757 9.74167 2.92297 9.99136 2.97088 10.2322C3.01879 10.4731 3.13705 10.6944 3.31072 10.8681C3.48438 11.0417 3.70565 11.16 3.94653 11.2079C4.18741 11.2559 4.4371 11.2313 4.66401 11.1373C4.89092 11.0433 5.08486 10.8841 5.22131 10.6799C5.35777 10.4757 5.4306 10.2356 5.4306 9.99002C5.4306 9.66068 5.29978 9.34483 5.06691 9.11195C4.83403 8.87907 4.51819 8.74823 4.18885 8.74822ZM4.18885 14.47C4.296 14.47 4.40075 14.5018 4.48984 14.5613C4.57893 14.6209 4.64837 14.7055 4.68937 14.8045C4.73037 14.9035 4.7411 15.0124 4.72019 15.1175C4.69928 15.2226 4.64768 15.3191 4.57191 15.3949C4.49615 15.4707 4.39961 15.5222 4.29452 15.5431C4.18943 15.5641 4.08049 15.5533 3.9815 15.5123C3.88251 15.4713 3.79789 15.4019 3.73837 15.3128C3.67884 15.2237 3.64706 15.1189 3.64706 15.0118C3.64722 14.8681 3.70435 14.7304 3.80593 14.6289C3.9075 14.5273 4.04521 14.4702 4.18885 14.47ZM4.18885 13.77C3.94325 13.77 3.70317 13.8428 3.49896 13.9793C3.29475 14.1157 3.13558 14.3097 3.04159 14.5366C2.9476 14.7635 2.92301 15.0132 2.97092 15.254C3.01883 15.4949 3.1371 15.7162 3.31076 15.8898C3.48442 16.0635 3.70569 16.1818 3.94657 16.2297C4.18745 16.2776 4.43713 16.253 4.66403 16.159C4.89094 16.0651 5.08488 15.9059 5.22132 15.7017C5.35777 15.4975 5.4306 15.2574 5.4306 15.0118C5.4306 14.6825 5.29978 14.3666 5.0669 14.1337C4.83403 13.9009 4.51819 13.77 4.18885 13.77Z" fill="#666666"/>
</svg>
