<svg width="19" height="8" viewBox="0 0 19 8" fill="none" xmlns="http://www.w3.org/2000/svg">
<path d="M2.75693 4.405C3.0036 4.405 3.2186 4.375 3.40193 4.315C3.58526 4.25167 3.73693 4.16333 3.85693 4.05C3.98026 3.93333 4.07193 3.79333 4.13193 3.63C4.19193 3.46333 4.22193 3.27833 4.22193 3.075C4.22193 2.88167 4.19193 2.70667 4.13193 2.55C4.07193 2.39333 3.98193 2.26 3.86193 2.15C3.74193 2.04 3.59026 1.95667 3.40693 1.9C3.2236 1.84 3.00693 1.81 2.75693 1.81H1.75193V4.405H2.75693ZM2.75693 0.77C3.24026 0.77 3.6586 0.826666 4.01193 0.94C4.36526 1.05333 4.65693 1.21167 4.88693 1.415C5.11693 1.61833 5.28693 1.86167 5.39693 2.145C5.51026 2.42833 5.56693 2.73833 5.56693 3.075C5.56693 3.425 5.5086 3.74667 5.39193 4.04C5.27526 4.33 5.10026 4.58 4.86693 4.79C4.6336 5 4.34026 5.16333 3.98693 5.28C3.63693 5.39667 3.22693 5.455 2.75693 5.455H1.75193V8H0.406929V0.77H2.75693ZM13.0183 4.385C13.0183 4.915 12.93 5.40167 12.7533 5.845C12.5767 6.28833 12.3283 6.67 12.0083 6.99C11.6883 7.31 11.3033 7.55833 10.8533 7.735C10.4033 7.91167 9.90334 8 9.35334 8H6.59834V0.77H9.35334C9.90334 0.77 10.4033 0.86 10.8533 1.04C11.3033 1.21667 11.6883 1.465 12.0083 1.785C12.3283 2.10167 12.5767 2.48167 12.7533 2.925C12.93 3.36833 13.0183 3.855 13.0183 4.385ZM11.6383 4.385C11.6383 3.98833 11.585 3.63333 11.4783 3.32C11.375 3.00333 11.2233 2.73667 11.0233 2.52C10.8267 2.3 10.5867 2.13167 10.3033 2.015C10.0233 1.89833 9.70667 1.84 9.35334 1.84H7.94834V6.93H9.35334C9.70667 6.93 10.0233 6.87167 10.3033 6.755C10.5867 6.63833 10.8267 6.47167 11.0233 6.255C11.2233 6.035 11.375 5.76833 11.4783 5.455C11.585 5.13833 11.6383 4.78167 11.6383 4.385ZM15.5558 1.84V3.98H18.2658V5.055H15.5558V8H14.2058V0.77H18.7658V1.84H15.5558Z" fill="white"/>
</svg>
