<svg width="15" height="14" viewBox="0 0 15 14" fill="none" xmlns="http://www.w3.org/2000/svg">
<g clip-path="url(#clip0_68_4446)">
<path d="M7.33342 0.583344C6.06432 0.583344 4.82372 0.959675 3.76851 1.66475C2.71329 2.36982 1.89085 3.37197 1.40519 4.54446C0.919528 5.71696 0.792457 7.00714 1.04005 8.25185C1.28763 9.49656 1.89876 10.6399 2.79615 11.5373C3.69354 12.4347 4.83688 13.0458 6.08159 13.2934C7.3263 13.541 8.61648 13.4139 9.78897 12.9283C10.9615 12.4426 11.9636 11.6201 12.6687 10.5649C13.3738 9.50972 13.7501 8.26912 13.7501 7.00002C13.7481 5.29883 13.0714 3.66789 11.8685 2.46496C10.6655 1.26204 9.03461 0.58535 7.33342 0.583344ZM7.33342 12.25C6.29506 12.25 5.28003 11.9421 4.41667 11.3652C3.55332 10.7884 2.88041 9.96842 2.48305 9.00911C2.08569 8.0498 1.98172 6.99419 2.18429 5.97579C2.38687 4.95739 2.88688 4.02193 3.62111 3.2877C4.35533 2.55348 5.29079 2.05346 6.30919 1.85089C7.32759 1.64832 8.38319 1.75228 9.3425 2.14964C10.3018 2.54701 11.1218 3.21991 11.6986 4.08327C12.2755 4.94663 12.5834 5.96167 12.5834 7.00002C12.5817 8.39189 12.028 9.72626 11.0439 10.7105C10.0597 11.6947 8.72528 12.2483 7.33342 12.25Z" fill="#757575"/>
<path d="M7.91667 6.75849V3.49999C7.91667 3.34528 7.85521 3.19691 7.74582 3.08751C7.63642 2.97811 7.48805 2.91666 7.33334 2.91666C7.17863 2.91666 7.03025 2.97811 6.92086 3.08751C6.81146 3.19691 6.75 3.34528 6.75 3.49999V6.99999C6.75003 7.15468 6.81151 7.30303 6.92092 7.4124L8.67093 9.1624C8.78095 9.26866 8.9283 9.32745 9.08125 9.32613C9.2342 9.3248 9.3805 9.26345 9.48866 9.15529C9.59682 9.04714 9.65816 8.90083 9.65949 8.74788C9.66082 8.59494 9.60203 8.44758 9.49577 8.33757L7.91667 6.75849Z" fill="#757575"/>
</g>
<defs>
<clipPath id="clip0_68_4446">
<rect width="14" height="14" fill="white" transform="translate(0.333374)"/>
</clipPath>
</defs>
</svg>
