<svg width="20" height="20" viewBox="0 0 20 20" fill="none" xmlns="http://www.w3.org/2000/svg">
<path d="M7.66659 9.41665H5.33325C4.86912 9.41665 4.424 9.23227 4.09582 8.90408C3.76763 8.5759 3.58325 8.13078 3.58325 7.66665V5.33331C3.58325 4.86918 3.76763 4.42406 4.09582 4.09588C4.424 3.76769 4.86912 3.58331 5.33325 3.58331H7.66659C8.13071 3.58331 8.57583 3.76769 8.90402 4.09588C9.23221 4.42406 9.41659 4.86918 9.41659 5.33331V7.66665C9.41659 8.13078 9.23221 8.5759 8.90402 8.90408C8.57583 9.23227 8.13071 9.41665 7.66659 9.41665ZM5.33325 4.74998C5.17854 4.74998 5.03017 4.81144 4.92077 4.92083C4.81138 5.03023 4.74992 5.1786 4.74992 5.33331V7.66665C4.74992 7.82136 4.81138 7.96973 4.92077 8.07913C5.03017 8.18852 5.17854 8.24998 5.33325 8.24998H7.66659C7.8213 8.24998 7.96967 8.18852 8.07906 8.07913C8.18846 7.96973 8.24992 7.82136 8.24992 7.66665V5.33331C8.24992 5.1786 8.18846 5.03023 8.07906 4.92083C7.96967 4.81144 7.8213 4.74998 7.66659 4.74998H5.33325ZM14.6666 9.41665H12.3333C11.8691 9.41665 11.424 9.23227 11.0958 8.90408C10.7676 8.5759 10.5833 8.13078 10.5833 7.66665V5.33331C10.5833 4.86918 10.7676 4.42406 11.0958 4.09588C11.424 3.76769 11.8691 3.58331 12.3333 3.58331H14.6666C15.1307 3.58331 15.5758 3.76769 15.904 4.09588C16.2322 4.42406 16.4166 4.86918 16.4166 5.33331V7.66665C16.4166 8.13078 16.2322 8.5759 15.904 8.90408C15.5758 9.23227 15.1307 9.41665 14.6666 9.41665ZM12.3333 4.74998C12.1785 4.74998 12.0302 4.81144 11.9208 4.92083C11.8114 5.03023 11.7499 5.1786 11.7499 5.33331V7.66665C11.7499 7.82136 11.8114 7.96973 11.9208 8.07913C12.0302 8.18852 12.1785 8.24998 12.3333 8.24998H14.6666C14.8213 8.24998 14.9697 8.18852 15.0791 8.07913C15.1885 7.96973 15.2499 7.82136 15.2499 7.66665V5.33331C15.2499 5.1786 15.1885 5.03023 15.0791 4.92083C14.9697 4.81144 14.8213 4.74998 14.6666 4.74998H12.3333ZM7.66659 16.4166H5.33325C4.86912 16.4166 4.424 16.2323 4.09582 15.9041C3.76763 15.5759 3.58325 15.1308 3.58325 14.6666V12.3333C3.58325 11.8692 3.76763 11.4241 4.09582 11.0959C4.424 10.7677 4.86912 10.5833 5.33325 10.5833H7.66659C8.13071 10.5833 8.57583 10.7677 8.90402 11.0959C9.23221 11.4241 9.41659 11.8692 9.41659 12.3333V14.6666C9.41659 15.1308 9.23221 15.5759 8.90402 15.9041C8.57583 16.2323 8.13071 16.4166 7.66659 16.4166ZM5.33325 11.75C5.17854 11.75 5.03017 11.8114 4.92077 11.9208C4.81138 12.0302 4.74992 12.1786 4.74992 12.3333V14.6666C4.74992 14.8214 4.81138 14.9697 4.92077 15.0791C5.03017 15.1885 5.17854 15.25 5.33325 15.25H7.66659C7.8213 15.25 7.96967 15.1885 8.07906 15.0791C8.18846 14.9697 8.24992 14.8214 8.24992 14.6666V12.3333C8.24992 12.1786 8.18846 12.0302 8.07906 11.9208C7.96967 11.8114 7.8213 11.75 7.66659 11.75H5.33325ZM14.6666 16.4166H12.3333C11.8691 16.4166 11.424 16.2323 11.0958 15.9041C10.7676 15.5759 10.5833 15.1308 10.5833 14.6666V12.3333C10.5833 11.8692 10.7676 11.4241 11.0958 11.0959C11.424 10.7677 11.8691 10.5833 12.3333 10.5833H14.6666C15.1307 10.5833 15.5758 10.7677 15.904 11.0959C16.2322 11.4241 16.4166 11.8692 16.4166 12.3333V14.6666C16.4166 15.1308 16.2322 15.5759 15.904 15.9041C15.5758 16.2323 15.1307 16.4166 14.6666 16.4166ZM12.3333 11.75C12.1785 11.75 12.0302 11.8114 11.9208 11.9208C11.8114 12.0302 11.7499 12.1786 11.7499 12.3333V14.6666C11.7499 14.8214 11.8114 14.9697 11.9208 15.0791C12.0302 15.1885 12.1785 15.25 12.3333 15.25H14.6666C14.8213 15.25 14.9697 15.1885 15.0791 15.0791C15.1885 14.9697 15.2499 14.8214 15.2499 14.6666V12.3333C15.2499 12.1786 15.1885 12.0302 15.0791 11.9208C14.9697 11.8114 14.8213 11.75 14.6666 11.75H12.3333Z" fill="white"/>
</svg>
