<?xml version="1.0" encoding="utf-8"?><svg viewBox="0 0 25 24" xmlns="http://www.w3.org/2000/svg" xmlns:xlink="http://www.w3.org/1999/xlink"><style>:root>svg{display:none}:root>svg:target{display:block}</style><svg viewBox="0 0 20 20" id="icon-card-view" xmlns="http://www.w3.org/2000/svg"><path d="M7.667 9.417H5.333a1.75 1.75 0 01-1.75-1.75V5.333a1.75 1.75 0 011.75-1.75h2.334a1.75 1.75 0 011.75 1.75v2.334a1.75 1.75 0 01-1.75 1.75zM5.333 4.75a.583.583 0 00-.583.583v2.334a.583.583 0 00.583.583h2.334a.583.583 0 00.583-.583V5.333a.583.583 0 00-.583-.583H5.333zm9.334 4.667h-2.334a1.75 1.75 0 01-1.75-1.75V5.333a1.75 1.75 0 011.75-1.75h2.334a1.75 1.75 0 011.75 1.75v2.334a1.75 1.75 0 01-1.75 1.75zM12.333 4.75a.583.583 0 00-.583.583v2.334a.583.583 0 00.583.583h2.334a.583.583 0 00.583-.583V5.333a.583.583 0 00-.583-.583h-2.334zM7.667 16.417H5.333a1.75 1.75 0 01-1.75-1.75v-2.334a1.75 1.75 0 011.75-1.75h2.334a1.75 1.75 0 011.75 1.75v2.334a1.75 1.75 0 01-1.75 1.75zM5.333 11.75a.583.583 0 00-.583.583v2.334a.583.583 0 00.583.583h2.334a.583.583 0 00.583-.583v-2.334a.583.583 0 00-.583-.583H5.333zm9.334 4.667h-2.334a1.75 1.75 0 01-1.75-1.75v-2.334a1.75 1.75 0 011.75-1.75h2.334a1.75 1.75 0 011.75 1.75v2.334a1.75 1.75 0 01-1.75 1.75zm-2.334-4.667a.583.583 0 00-.583.583v2.334a.583.583 0 00.583.583h2.334a.583.583 0 00.583-.583v-2.334a.583.583 0 00-.583-.583h-2.334z"/></svg><svg viewBox="0 0 15 14" id="icon-clock" xmlns="http://www.w3.org/2000/svg"><g clip-path="url(#ba)"><path d="M7.333.583A6.417 6.417 0 1013.75 7 6.424 6.424 0 007.333.583zm0 11.667A5.25 5.25 0 1112.583 7a5.257 5.257 0 01-5.25 5.25z"/><path d="M7.917 6.758V3.5a.583.583 0 00-1.167 0V7c0 .155.062.303.17.412l1.75 1.75a.583.583 0 00.826-.824l-1.58-1.58z"/></g><defs><clipPath id="ba"><path transform="translate(.333)" d="M0 0h14v14H0z"/></clipPath></defs></svg><svg viewBox="0 0 18 18" id="icon-close" xmlns="http://www.w3.org/2000/svg"><path d="M10.058 9l3.225-3.218a.753.753 0 10-1.065-1.064L9 7.942 5.783 4.718a.753.753 0 10-1.065 1.064L7.943 9l-3.225 3.217a.75.75 0 00.244 1.23.751.751 0 00.82-.164L9 10.056l3.218 3.226a.751.751 0 001.287-.533.75.75 0 00-.222-.533L10.058 9z"/></svg><svg viewBox="0 0 25 24" id="icon-heart" xmlns="http://www.w3.org/2000/svg"><path fill-rule="evenodd" clip-rule="evenodd" d="M1.854 9.495c0-3.503 2.388-6.486 6.05-6.486 1.455 0 2.733.687 4.033 1.866 1.338-1.191 2.716-1.866 4.158-1.866 3.675 0 5.979 3 5.92 6.498-.034 2.068-1.473 4.223-3.277 6.132-1.838 1.946-4.206 3.79-6.388 5.244l-.416.277-.416-.277c-2.177-1.451-4.559-3.278-6.406-5.216-1.812-1.901-3.258-4.062-3.258-6.172zm6.05-4.986c-2.68 0-4.55 2.15-4.55 4.986 0 1.487 1.067 3.273 2.844 5.137 1.629 1.71 3.73 3.356 5.736 4.723 2.002-1.367 4.091-3.029 5.714-4.746 1.77-1.874 2.844-3.666 2.868-5.126.047-2.84-1.753-4.974-4.42-4.974-1.072 0-2.265.565-3.632 1.93l-.53.53-.53-.53c-1.385-1.384-2.445-1.93-3.5-1.93z"/></svg><svg viewBox="0 0 18 18" id="icon-menu" xmlns="http://www.w3.org/2000/svg"><g clip-path="url(#ea)"><path d="M10.591 17.341a2.25 2.25 0 11-3.182-3.182 2.25 2.25 0 013.182 3.182zm0-6.75a2.25 2.25 0 11-3.182-3.182 2.25 2.25 0 013.182 3.182zm0-6.75A2.25 2.25 0 117.409.659a2.25 2.25 0 013.182 3.182z"/></g><defs><clipPath id="ea"><path transform="rotate(90 9 9)" d="M0 0h18v18H0z"/></clipPath></defs></svg><svg viewBox="0 0 21 20" id="icon-metro" xmlns="http://www.w3.org/2000/svg"><g clip-path="url(#fa)"><path d="M13.575 2.248l-3.242 10.22-3.242-10.22C3.235 3.573.333 7.169.333 11.292c0 2.483 1.013 4.772 2.652 6.46h4.7l.493-2.137c-5.615-2.2-4.553-9.018-2.518-10.13.242.072 3.783 12.217 3.783 12.217h1.78s3.541-12.145 3.783-12.218c2.036 1.113 3.097 7.93-2.518 10.131l.493 2.137h4.7c1.64-1.688 2.652-3.977 2.652-6.46 0-4.123-2.901-7.719-6.758-9.044z"/></g><defs><clipPath id="fa"><path transform="translate(.333)" d="M0 0h20v20H0z"/></clipPath></defs></svg><svg viewBox="0 0 19 8" id="icon-pdf" xmlns="http://www.w3.org/2000/svg"><path d="M2.757 4.405c.247 0 .462-.03.645-.09.183-.063.335-.152.455-.265.123-.117.215-.257.275-.42.06-.167.09-.352.09-.555 0-.193-.03-.368-.09-.525-.06-.157-.15-.29-.27-.4a1.176 1.176 0 00-.455-.25c-.183-.06-.4-.09-.65-.09H1.752v2.595h1.005zm0-3.635c.483 0 .902.057 1.255.17.353.113.645.272.875.475.23.203.4.447.51.73.113.283.17.593.17.93 0 .35-.058.672-.175.965a2.01 2.01 0 01-.525.75c-.233.21-.527.373-.88.49-.35.117-.76.175-1.23.175H1.752V8H.407V.77h2.35zm10.261 3.615a3.91 3.91 0 01-.265 1.46 3.353 3.353 0 01-.745 1.145c-.32.32-.705.568-1.155.745-.45.177-.95.265-1.5.265H6.598V.77h2.755c.55 0 1.05.09 1.5.27.45.177.835.425 1.155.745a3.3 3.3 0 01.745 1.14c.177.443.265.93.265 1.46zm-1.38 0c0-.397-.053-.752-.16-1.065a2.138 2.138 0 00-.455-.8 1.943 1.943 0 00-.72-.505 2.45 2.45 0 00-.95-.175H7.948v5.09h1.405c.354 0 .67-.058.95-.175a1.97 1.97 0 00.72-.5c.2-.22.352-.487.455-.8a3.34 3.34 0 00.16-1.07zm3.918-2.545v2.14h2.71v1.075h-2.71V8h-1.35V.77h4.56v1.07h-3.21z"/></svg><svg viewBox="0 0 15 14" id="icon-pen" xmlns="http://www.w3.org/2000/svg"><g clip-path="url(#ha)"><path d="M10.396 13.999H1.938c-.885 0-1.605-.72-1.605-1.604V3.936c0-.885.72-1.604 1.605-1.604h4.958a.438.438 0 010 .875H1.938a.73.73 0 00-.73.73v8.458a.73.73 0 00.73.729h8.458a.73.73 0 00.73-.73V7.437a.438.438 0 01.874 0v4.959c0 .885-.72 1.604-1.604 1.604z"/><path d="M5.45 9.32a.437.437 0 01-.428-.524l.412-2.063a.436.436 0 01.12-.223L11.595.469a1.606 1.606 0 012.738 1.134c0 .429-.166.831-.47 1.134l-6.04 6.042a.434.434 0 01-.224.12l-2.062.412a.43.43 0 01-.087.008zm2.063-.85h.006-.006zM6.266 7.034l-.257 1.29 1.288-.259 5.948-5.947a.726.726 0 000-1.032.73.73 0 00-1.031 0L6.266 7.035z"/><path d="M12.73 3.69a.434.434 0 01-.31-.128l-1.65-1.65a.438.438 0 11.62-.619l1.649 1.65a.438.438 0 01-.31.748z"/></g><defs><clipPath id="ha"><path transform="translate(.333)" d="M0 0h14v14H0z"/></clipPath></defs></svg><svg viewBox="0 0 11 10" id="icon-plus" xmlns="http://www.w3.org/2000/svg"><g clip-path="url(#ia)"><path d="M5.957 4.376V0H4.71v4.376H.333v1.248H4.71V10h1.248V5.624h4.376V4.376H5.957z"/></g><defs><clipPath id="ia"><path transform="translate(.333)" d="M0 0h10v10H0z"/></clipPath></defs></svg><svg viewBox="0 0 16 16" id="icon-sort" xmlns="http://www.w3.org/2000/svg"><path fill-rule="evenodd" clip-rule="evenodd" d="M5.853 10.75a.667.667 0 00-1.04-.833l-.146.183V4a.667.667 0 10-1.334 0v6.1l-.146-.183a.667.667 0 10-1.04.833l1.333 1.667a.665.665 0 001.04 0l1.333-1.667zM8 12a.667.667 0 010-1.333h5.333a.667.667 0 010 1.333H8zm0-3.333a.667.667 0 010-1.334h3.333a.667.667 0 110 1.334H8zm-.667-4A.667.667 0 008 5.333h2A.667.667 0 1010 4H8a.667.667 0 00-.667.667z"/></svg><svg viewBox="0 0 20 20" id="icon-table-view" xmlns="http://www.w3.org/2000/svg"><path fill-rule="evenodd" clip-rule="evenodd" d="M6.133 4.988a.75.75 0 01.75-.75h9.527a.75.75 0 010 1.5H6.883a.75.75 0 01-.75-.75zm.02 5.002a.75.75 0 01.75-.75h9.527a.75.75 0 010 1.5H6.903a.75.75 0 01-.75-.75zm0 5.022a.75.75 0 01.75-.75h9.527a.75.75 0 010 1.5H6.903a.75.75 0 01-.75-.75z"/><path d="M4.189 4.458a.542.542 0 110 1.084.542.542 0 010-1.084zm0-.7a1.242 1.242 0 100 2.484 1.242 1.242 0 000-2.484zm0 5.69a.542.542 0 110 1.084.542.542 0 010-1.084zm0-.7a1.242 1.242 0 100 2.484 1.242 1.242 0 000-2.484zm0 5.722a.542.542 0 110 1.084.542.542 0 010-1.084zm0-.7a1.241 1.241 0 100 2.483 1.241 1.241 0 000-2.483z"/></svg></svg>